<svg width="411" height="181" viewBox="0 0 411 181" fill="none" xmlns="http://www.w3.org/2000/svg">
<path d="M360.728 73.4912C354.39 68.8459 346.263 66.5273 332.958 66.5373L302.408 66.5597L305.642 76.1998C306.627 79.136 308.505 81.6876 311.011 83.4943C313.518 85.301 316.526 86.2716 319.611 86.2692L331.376 86.2607C334.889 86.2582 335.989 86.5255 338.065 87.0585C339.855 87.4402 341.509 88.2972 342.857 89.5402C343.974 90.6619 344.751 92.0802 345.095 93.629C345.498 95.5257 345.687 97.462 345.658 99.4012L345.661 103.291C343.104 101.954 340.396 100.933 337.596 100.249C334.347 99.3972 330.062 98.9729 324.741 98.9759C313.776 98.9839 305.635 100.994 300.316 105.006C294.998 109.019 292.342 115.462 292.347 124.335L292.349 127.702C292.295 131.294 292.838 134.87 293.954 138.284C294.992 141.345 296.811 144.08 299.228 146.216C301.678 148.407 304.899 150.062 308.892 151.18C312.885 152.299 317.862 152.856 323.823 152.852L352.084 152.831C354.926 152.876 357.764 152.605 360.546 152.024C362.635 151.611 364.585 150.671 366.212 149.294C367.71 147.911 368.788 146.131 369.322 144.16C370.013 141.6 370.334 138.954 370.275 136.302L370.246 96.8158C370.237 85.9117 367.065 78.1368 360.728 73.4912ZM345.525 135.036L328.599 135.049C324.131 135.052 321.043 134.359 319.337 132.971C317.632 131.583 316.778 129.339 316.778 126.24V125.118C316.776 121.805 317.653 119.479 319.409 118.14C321.166 116.801 324.545 116.131 329.547 116.129H331.781C337.422 116.125 341.121 116.897 342.88 118.446C344.638 119.995 345.518 122.426 345.52 125.74L345.525 135.036Z" fill="#7639F8"/>
<path d="M84.1306 73.5785C80.9858 71.0703 76.9128 69.2829 71.9117 68.2162C66.58 67.1713 61.1606 66.6443 55.7284 66.6425L55.7567 66.6245L0 66.6659L3.64015 77.3865C4.50718 79.9404 6.14866 82.1575 8.33427 83.7269C10.5199 85.2962 13.1399 86.139 15.8268 86.1371C14.8503 90.0964 14.3883 94.166 14.4523 98.2444L14.4926 153.081L39.8797 153.063L39.841 100.15C39.8129 98.2145 39.972 96.2812 40.3162 94.377C40.5511 92.808 41.2702 91.3525 42.3722 90.2155C43.4741 89.0785 44.9035 88.3172 46.4589 88.0388C48.8951 87.4956 51.3879 87.2513 53.8827 87.3113C56.3776 87.2478 58.8709 87.4884 61.308 88.0279C62.8638 88.3041 64.2941 89.0632 65.3977 90.1985C66.5013 91.3338 67.2227 92.788 67.4602 94.3565C67.8069 96.2603 67.9687 98.1935 67.9433 100.129L67.982 153.042L93.3697 153.023L93.3295 98.186C93.3249 92.3081 92.5761 87.3647 91.0831 83.3557C89.7078 79.5151 87.3016 76.1314 84.1306 73.5785Z" fill="#4A8400"/>
<path d="M368.731 33.6833L372.055 43.4704C373.014 46.2961 374.831 48.7493 377.249 50.4857C379.667 52.2221 382.566 53.1546 385.539 53.1524V53.1524L385.612 152.806L411 152.787L410.913 33.6519L368.731 33.6833Z" fill="#0094FF"/>
<path d="M177.351 74.9522C171.598 69.3446 162.015 66.5457 148.601 66.5557L95.5778 66.5931L99.0973 76.9572C99.9996 79.6147 101.708 81.9218 103.982 83.5549C106.257 85.1879 108.983 86.0649 111.779 86.0627V86.0627C111.439 86.9952 111.126 87.9511 110.859 88.9503C109.531 93.9217 108.87 99.7747 108.877 106.509L108.883 115.328C108.888 121.741 109.504 127.326 110.732 132.082C111.784 136.515 113.96 140.601 117.047 143.942C120.029 147.094 124.022 149.443 129.028 150.989C134.034 152.534 140.315 153.304 147.871 153.299L162.88 153.289C167.455 153.285 172.404 153.174 177.729 152.957L181.386 133.071C175.104 133.184 169.436 133.242 164.382 133.244L150.251 133.255C147.685 133.298 145.12 133.113 142.586 132.699C140.798 132.434 139.115 131.688 137.715 130.539C136.467 129.437 135.577 127.986 135.157 126.371C134.608 124.169 134.311 121.91 134.274 119.64L171.956 119.612C174.217 119.661 176.474 119.389 178.659 118.805C180.386 118.324 181.92 117.314 183.048 115.915C184.255 114.317 185.049 112.444 185.359 110.462C185.831 107.601 186.043 104.703 185.992 101.803L185.99 98.4358C185.982 88.39 183.103 80.5622 177.351 74.9522ZM134.258 102.002C134.21 99.2119 134.395 96.4226 134.811 93.6634C135.054 91.8277 135.768 90.0869 136.883 88.6117C137.962 87.3384 139.414 86.4395 141.032 86.0433C145.613 85.0775 150.342 85.0739 154.924 86.0328C156.56 86.4394 158.035 87.3323 159.157 88.5948C160.321 90.0492 161.069 91.7948 161.32 93.644C161.739 96.4026 161.928 99.1915 161.885 101.982L134.258 102.002Z" fill="#F84848"/>
<path d="M275.395 75.1197C272.145 72.0229 267.966 69.808 262.857 68.4749C257.748 67.1419 251.626 66.4784 244.491 66.4844L189.885 66.5248L193.438 76.9896C194.331 79.6176 196.02 81.8992 198.269 83.5141C200.519 85.129 203.215 85.9964 205.98 85.9944V85.9944C205.801 86.4931 205.626 86.9982 205.467 87.5183C203.926 92.5448 203.159 98.692 203.165 105.96L203.22 181L228.607 180.981L228.585 150.837C230.968 152.445 233.619 153.611 236.412 154.277C240.074 155.141 243.829 155.542 247.59 155.472C254.081 155.467 259.669 154.768 264.354 153.377C268.754 152.153 272.749 149.77 275.923 146.474C278.954 143.265 281.186 139.094 282.62 133.962C284.054 128.83 284.768 122.523 284.762 115.04L284.756 107.023C284.75 99.3266 284 92.86 282.506 87.623C281.013 82.386 278.643 78.2183 275.395 75.1197ZM259.059 115.699C259.112 119.104 258.901 122.508 258.428 125.881C258.003 128.501 257.233 130.506 256.117 131.896C254.933 133.328 253.302 134.318 251.489 134.704C248.997 135.24 246.452 135.484 243.905 135.432C241.411 135.484 238.919 135.243 236.48 134.716C234.664 134.327 233.015 133.375 231.768 131.993C230.484 130.424 229.63 128.545 229.289 126.543C228.749 123.556 228.506 120.521 228.563 117.485L228.555 105.94C228.492 102.558 228.73 99.1775 229.266 95.838C229.743 93.2727 230.567 91.3214 231.737 89.984C232.983 88.6012 234.63 87.6464 236.445 87.2545C241.348 86.2888 246.39 86.2851 251.294 87.2435C253.126 87.6414 254.779 88.6247 256.007 90.0458C257.178 91.4354 257.978 93.439 258.406 96.0569C258.887 99.4822 259.103 102.94 259.052 106.399L259.059 115.699Z" fill="#F8D00C"/>
</svg>
